<svg xmlns="http://www.w3.org/2000/svg" viewBox="0 0 720 400">
  <defs>
    <linearGradient id="rwg-bg" x1="0" y1="0" x2="1" y2="1"><stop offset="0%" stop-color="#ede9fe"/><stop offset="100%" stop-color="#e0e7ff"/></linearGradient>
    <linearGradient id="rwg-accent" x1="0" y1="0" x2="1" y2="0"><stop offset="0%" stop-color="#6366f1"/><stop offset="100%" stop-color="#4f46e5"/></linearGradient>
  </defs>
  <rect width="720" height="400" fill="url(#rwg-bg)" rx="20"/>
  <text x="360" y="38" text-anchor="middle" font-family="system-ui,-apple-system,sans-serif" font-size="20" font-weight="700" fill="#4338ca">Remote Work &amp; Global Teams</text>
  <!-- Simplified world map outline -->
  <ellipse cx="360" cy="195" rx="290" ry="130" fill="none" stroke="#c7d2fe" stroke-width="1.5" stroke-dasharray="6"/>
  <!-- Continents as simple shapes -->
  <ellipse cx="180" cy="170" rx="60" ry="40" fill="#e0e7ff" opacity="0.6"/>
  <text x="180" y="160" text-anchor="middle" font-family="system-ui,-apple-system,sans-serif" font-size="9" fill="#6b7280">Americas</text>
  <text x="180" y="175" text-anchor="middle" font-family="system-ui,-apple-system,sans-serif" font-size="8" fill="#94a3b8">UTC-8 to -3</text>
  <ellipse cx="360" cy="160" rx="55" ry="45" fill="#e0e7ff" opacity="0.6"/>
  <text x="360" y="150" text-anchor="middle" font-family="system-ui,-apple-system,sans-serif" font-size="9" fill="#6b7280">Europe</text>
  <text x="360" y="165" text-anchor="middle" font-family="system-ui,-apple-system,sans-serif" font-size="8" fill="#94a3b8">UTC+0 to +3</text>
  <ellipse cx="530" cy="175" rx="65" ry="40" fill="#e0e7ff" opacity="0.6"/>
  <text x="530" y="165" text-anchor="middle" font-family="system-ui,-apple-system,sans-serif" font-size="9" fill="#6b7280">Asia-Pacific</text>
  <text x="530" y="180" text-anchor="middle" font-family="system-ui,-apple-system,sans-serif" font-size="8" fill="#94a3b8">UTC+5 to +12</text>
  <!-- Team member dots -->
  <circle cx="155" cy="155" r="6" fill="#6366f1"/><circle cx="155" cy="155" r="3" fill="white"/>
  <circle cx="200" cy="185" r="6" fill="#6366f1"/><circle cx="200" cy="185" r="3" fill="white"/>
  <circle cx="170" cy="195" r="6" fill="#6366f1"/><circle cx="170" cy="195" r="3" fill="white"/>
  <circle cx="345" cy="140" r="6" fill="#6366f1"/><circle cx="345" cy="140" r="3" fill="white"/>
  <circle cx="375" cy="170" r="6" fill="#6366f1"/><circle cx="375" cy="170" r="3" fill="white"/>
  <circle cx="515" cy="160" r="6" fill="#6366f1"/><circle cx="515" cy="160" r="3" fill="white"/>
  <circle cx="550" cy="185" r="6" fill="#6366f1"/><circle cx="550" cy="185" r="3" fill="white"/>
  <!-- Connecting lines -->
  <line x1="161" y1="155" x2="339" y2="140" stroke="#94a3b8" stroke-width="1" stroke-dasharray="4" opacity="0.5"/>
  <line x1="206" y1="185" x2="369" y2="170" stroke="#94a3b8" stroke-width="1" stroke-dasharray="4" opacity="0.5"/>
  <line x1="381" y1="170" x2="509" y2="160" stroke="#94a3b8" stroke-width="1" stroke-dasharray="4" opacity="0.5"/>
  <!-- Tools at bottom -->
  <rect x="80" y="278" width="130" height="52" rx="14" fill="white" stroke="#c7d2fe" stroke-width="1.5"/>
  <text x="145" y="300" text-anchor="middle" font-family="system-ui,-apple-system,sans-serif" font-size="13" font-weight="700" fill="#4338ca">💬 Slack</text>
  <text x="145" y="317" text-anchor="middle" font-family="system-ui,-apple-system,sans-serif" font-size="10" fill="#6b7280">Async communication</text>
  <rect x="230" y="278" width="130" height="52" rx="14" fill="white" stroke="#c7d2fe" stroke-width="1.5"/>
  <text x="295" y="300" text-anchor="middle" font-family="system-ui,-apple-system,sans-serif" font-size="13" font-weight="700" fill="#4338ca">📹 Zoom</text>
  <text x="295" y="317" text-anchor="middle" font-family="system-ui,-apple-system,sans-serif" font-size="10" fill="#6b7280">Face-to-face sync</text>
  <rect x="380" y="278" width="130" height="52" rx="14" fill="white" stroke="#c7d2fe" stroke-width="1.5"/>
  <text x="445" y="300" text-anchor="middle" font-family="system-ui,-apple-system,sans-serif" font-size="13" font-weight="700" fill="#4338ca">💻 GitHub</text>
  <text x="445" y="317" text-anchor="middle" font-family="system-ui,-apple-system,sans-serif" font-size="10" fill="#6b7280">Code collaboration</text>
  <rect x="530" y="278" width="130" height="52" rx="14" fill="white" stroke="#c7d2fe" stroke-width="1.5"/>
  <text x="595" y="300" text-anchor="middle" font-family="system-ui,-apple-system,sans-serif" font-size="13" font-weight="700" fill="#4338ca">📋 Notion</text>
  <text x="595" y="317" text-anchor="middle" font-family="system-ui,-apple-system,sans-serif" font-size="10" fill="#6b7280">Documentation hub</text>
  <text x="360" y="360" text-anchor="middle" font-family="system-ui,-apple-system,sans-serif" font-size="11" fill="#4338ca" font-weight="600">💡 Overlap hours are golden — protect them for live collaboration</text>
  <text x="360" y="388" text-anchor="middle" font-family="system-ui,-apple-system,sans-serif" font-size="13" fill="#6366f1" opacity="0.7">Async-first culture enables truly global teams to thrive</text>
</svg>